# Blender 5.0.1
# www.blender.org
mtllib arrow.mtl
o Cone
v 0.000000 -0.020000 -0.010000
v 0.000000 -0.020000 0.000000
v 0.000000 -0.020000 0.000000
v -0.010000 -0.020000 0.000000
v 0.000000 0.000000 0.000000
v 0.000000 -0.020000 -0.005000
v -0.005000 -0.020000 0.000000
v 0.000000 -0.020000 0.000000
v 0.000000 -0.020000 -0.005000
v -0.005000 -0.020000 0.000000
v 0.000000 -0.047995 -0.005000
v -0.005000 -0.047995 0.000000
v 0.010000 -0.020000 0.000000
v 0.005000 -0.020000 0.000000
v 0.005000 -0.020000 0.000000
v 0.005000 -0.047995 0.000000
v 0.000000 -0.020000 0.010000
v 0.000000 -0.020000 0.005000
v 0.000000 -0.020000 0.005000
v 0.000000 -0.047995 0.005000
vn -0.6667 0.3333 -0.6667
vn -0.0000 -1.0000 -0.0000
vn -0.0000 1.0000 -0.0000
vn -0.7071 -0.0000 -0.7071
vn 0.6667 0.3333 -0.6667
vn 0.7071 -0.0000 -0.7071
vn -0.6667 0.3333 0.6667
vn -0.7071 -0.0000 0.7071
vn 0.6667 0.3333 0.6667
vn 0.7071 -0.0000 0.7071
vt 0.010000 0.250000
vt 0.250000 0.250000
vt 0.250000 0.490000
vt 0.750000 0.490000
vt 0.870000 0.370000
vt 0.630000 0.130000
vt 0.510000 0.250000
s 0
f 4/1/1 5/2/1 1/3/1
f 1/4/2 6/5/2 7/6/2 4/7/2
f 7/6/3 6/5/3 9/5/3 10/6/3
f 10/6/4 9/5/4 11/5/4 12/6/4
f 13/1/5 1/3/5 5/2/5
f 1/4/2 13/7/2 14/6/2 6/5/2
f 14/6/3 15/6/3 9/5/3 6/5/3
f 15/6/6 16/6/6 11/5/6 9/5/6
f 4/1/7 17/3/7 5/2/7
f 17/4/2 4/7/2 7/6/2 18/5/2
f 7/6/3 10/6/3 19/5/3 18/5/3
f 10/6/8 12/6/8 20/5/8 19/5/8
f 13/1/9 5/2/9 17/3/9
f 17/4/2 18/5/2 14/6/2 13/7/2
f 14/6/3 18/5/3 19/5/3 15/6/3
f 15/6/10 19/5/10 20/5/10 16/6/10
f 12/6/2 11/5/2 16/6/2 20/5/2
l 2 3
l 3 8
